<svg width="304" height="55" viewBox="0 0 304 55" fill="none" xmlns="http://www.w3.org/2000/svg">
<path d="M38.6418 52.162C38.5348 52.378 38.3207 52.486 38.2136 52.486C38.1066 52.486 37.8925 52.486 37.7855 52.27L20.0164 23.11C19.1601 22.894 18.4108 22.678 17.7686 22.462L36.3939 53.026C36.8221 53.674 37.4643 54.106 38.2136 54.106C38.9629 54.106 39.6052 53.674 40.0333 53.026L61.7629 17.71C61.1207 17.818 60.3714 17.818 59.7291 17.926L38.6418 52.162Z" fill="white"/>
<path d="M70.6477 1.08C70.2195 0.432 69.5773 0 68.828 0H7.59983C6.85053 0 6.20828 0.432 5.78011 1.08C5.35194 1.728 5.35194 2.592 5.78011 3.24L10.1688 10.476C10.8111 10.584 11.5604 10.692 12.2026 10.692L7.17166 2.376C7.06462 2.16 7.17166 1.944 7.17166 1.836C7.17166 1.728 7.38574 1.62 7.59983 1.62H68.7209C68.935 1.62 69.1491 1.836 69.1491 1.836C69.1491 1.944 69.2562 2.052 69.1491 2.376L66.6871 6.48C67.1153 6.696 67.6505 7.02 68.0787 7.236L70.5407 3.24C70.9688 2.484 70.9688 1.728 70.6477 1.08Z" fill="white"/>
<path d="M74.7153 18.0347C70.9688 16.4147 67.1153 15.5507 63.1548 15.3347C62.5125 15.3347 61.8703 15.2267 61.335 15.2267C58.1238 15.1187 54.9125 15.4427 51.7012 16.1987C47.7407 17.0627 43.7801 18.1427 39.8195 19.1147C40.4618 18.7907 40.997 18.3587 41.6393 18.0347C46.8843 15.3347 52.4505 13.2827 58.3379 12.7427C59.8364 12.6347 61.335 12.6347 62.9407 12.6347C63.3688 12.6347 63.69 12.6347 64.1181 12.7427C64.3322 12.7427 64.5463 12.7427 64.8674 12.7427C65.2956 12.7427 65.7238 12.8507 65.7238 12.8507C65.7238 12.8507 65.4026 12.7427 64.9745 12.6347C64.6534 12.5267 64.4393 12.4187 64.2252 12.4187C63.9041 12.3107 63.69 12.3107 63.3688 12.2027C62.8336 12.0947 62.1914 11.8787 61.6562 11.8787C57.9097 11.3387 54.2703 11.9867 50.7379 12.6347C43.8872 13.8227 37.2505 15.7667 30.721 18.0347C26.3322 19.5467 22.0505 20.0867 17.8759 19.5467C17.1266 19.4387 16.4843 19.3307 15.735 19.1147C13.4872 18.5747 11.2393 17.7107 8.99138 16.5227C6.85054 15.3347 3.53223 13.2827 1.60547 11.9867C1.60547 12.0947 2.56885 13.3907 2.78293 13.4987C4.38857 15.2267 4.81674 15.7667 6.7435 17.2787C7.38575 17.8187 8.34913 18.4667 9.41955 19.1147C11.9886 20.6267 14.1294 21.3827 16.1632 22.0307C16.5914 22.1387 17.2336 22.4627 18.09 22.6787C18.7322 22.8947 19.4815 23.1107 20.3379 23.3267C21.3012 23.5427 22.4787 23.7587 23.6562 23.9747C28.1519 24.6227 31.5773 24.4067 33.9322 24.1907C36.7153 23.9747 39.6055 23.5427 42.3886 22.7867C43.0308 22.6787 43.3519 22.5707 47.8477 21.1667C53.9491 19.3307 55.2336 19.0067 56.5181 18.6827C56.6252 18.6827 56.7322 18.5747 56.8393 18.5747C57.8026 18.3587 58.8731 18.1427 60.0505 18.0347C60.6928 17.9267 61.4421 17.9267 62.0843 17.8187C63.9041 17.7107 65.7238 17.6027 67.2224 17.7107H67.3294C69.3632 17.7107 71.5041 17.9267 73.4308 18.3587C74.5012 18.5747 75.1435 18.6827 76.1069 19.0067C76.2139 19.0067 76.7491 19.2227 76.7491 19.2227C75.8928 18.6827 75.5717 18.4667 74.7153 18.0347Z" fill="#4FA5B8"/>
<path d="M68.0789 7.34192C67.6507 7.01792 67.1155 6.80192 66.6873 6.58592C65.4028 5.82992 64.2253 5.39792 62.9408 4.96592C61.1211 4.53392 59.0873 3.66992 51.3803 3.66992C46.3493 3.66992 41.3183 4.74992 39.6056 5.07392C37.5718 5.39792 35.6451 5.82992 33.7183 6.26192C31.8986 6.69392 30.9352 7.01792 29.8648 7.34192C29.1155 7.55792 28.2592 7.77392 26.9746 8.20592C23.2282 9.17792 17.9831 10.9059 12.3099 10.5819C11.6676 10.5819 10.9183 10.4739 10.2761 10.3659C9.41972 10.2579 8.67042 10.1499 7.81408 9.93392C5.78028 9.39392 2.46197 7.98992 0 6.80192C0.214085 7.01792 0.96338 7.66592 1.17746 7.88192C4.28169 10.4739 7.70704 11.8779 11.3465 12.3099C11.9887 12.4179 12.631 12.4179 13.3803 12.4179C14.3437 12.4179 15.307 12.4179 16.3775 12.3099C21.4085 11.7699 26.2254 10.2579 31.1493 8.96192C33.8254 8.31392 36.5014 7.66592 39.1775 7.01792H39.2845C39.3915 7.01792 39.3915 7.01792 39.2845 7.01792H39.1775C38.2141 7.34192 37.2507 7.66592 36.2873 7.98992C31.4704 9.60992 26.7606 11.3379 21.9437 12.7419C19.4817 13.4979 16.9127 14.0379 14.3437 14.0379C13.7014 14.0379 13.0592 14.0379 12.3099 13.9299C11.9887 13.9299 11.7746 13.8219 11.4535 13.8219C10.2761 13.6059 9.09859 13.2819 8.02817 13.0659C8.24225 13.2819 8.45634 13.4979 8.67042 13.6059C10.062 14.3619 11.5606 14.9019 12.9521 15.1179C13.5944 15.2259 14.3437 15.3339 14.9859 15.4419C16.3775 15.5499 17.662 15.4419 19.0535 15.3339C23.4423 14.7939 27.6169 13.2819 31.6845 11.8779C37.4648 9.93392 43.2451 7.77392 49.3465 7.01792C54.9127 6.26192 60.3718 6.36992 65.5099 8.09792C66.0451 8.31392 66.5803 8.42192 67.1155 8.63792C69.0423 9.39392 70.862 10.3659 72.6817 11.5539C72.8958 11.6619 73.3239 11.9859 73.431 12.0939C72.0394 10.0419 70.1127 8.52992 68.0789 7.34192Z" fill="#8BE1F4"/>
<path d="M83.9928 51.0713H81.9941V31.1482H91.9073V33.0841H83.9928V51.0713Z" fill="white"/>
<path d="M110.215 51.0713H108.136V35.8265L95.1852 51.0713H94.7056V31.1482H96.7042V46.635L109.735 31.1482H110.215V51.0713Z" fill="white"/>
<path d="M114.132 54.0557H112.213V49.2161H113.812L121.567 31.1482H122.286L130.441 49.2161H131.96V54.0557H130.041V51.0713H114.212V54.0557H114.132ZM116.051 49.2161H128.122L121.967 35.2619L116.051 49.2161Z" fill="white"/>
<path d="M134.678 31.1482H138.596C140.834 31.1482 142.353 31.2289 143.152 31.4709C144.272 31.7935 145.231 32.3581 145.95 33.1647C146.67 34.052 146.99 35.1006 146.99 36.4718C146.99 37.7623 146.67 38.8916 145.95 39.7789C145.231 40.6661 144.272 41.2307 143.072 41.5534C142.193 41.7954 140.514 41.876 138.036 41.876H136.677V51.0713H134.678V31.1482ZM136.677 33.0841V39.8595H140.035C141.394 39.8595 142.353 39.6982 142.992 39.4562C143.632 39.2142 144.112 38.8109 144.431 38.2463C144.751 37.6817 144.991 37.0364 144.991 36.3911C144.991 35.7458 144.831 35.1006 144.431 34.5359C144.112 33.9713 143.632 33.568 142.992 33.326C142.433 33.0841 141.474 33.0034 140.114 33.0034H136.677V33.0841Z" fill="white"/>
<path d="M160.02 30.6661C162.978 30.6661 165.456 31.6341 167.535 33.6506C169.533 35.6671 170.573 38.1675 170.573 41.0713C170.573 43.975 169.533 46.4755 167.535 48.492C165.536 50.5085 163.058 51.5571 160.18 51.5571C157.222 51.5571 154.823 50.5085 152.745 48.492C150.746 46.4755 149.707 44.0557 149.707 41.1519C149.707 39.2161 150.187 37.4416 151.066 35.8284C151.945 34.2152 153.225 32.9246 154.824 31.9567C156.422 31.1501 158.181 30.6661 160.02 30.6661ZM160.1 32.602C158.661 32.602 157.302 33.0053 155.943 33.7312C154.664 34.4572 153.624 35.5057 152.905 36.7963C152.185 38.0869 151.786 39.5387 151.786 41.1519C151.786 43.4911 152.585 45.5076 154.184 47.1208C155.783 48.734 157.781 49.5406 160.02 49.5406C161.539 49.5406 162.978 49.1373 164.257 48.4113C165.536 47.6854 166.575 46.6368 167.295 45.3463C168.014 44.0557 168.414 42.6038 168.414 40.9906C168.414 39.3774 168.014 38.0062 167.295 36.7156C166.575 35.4251 165.536 34.3765 164.257 33.6506C162.978 33.0053 161.539 32.602 160.1 32.602Z" fill="white"/>
<path d="M174.41 31.1482H176.408V38.5689L184.243 31.1482H186.881L177.448 40.1015L187.68 51.0713H185.122L176.488 41.7954V51.0713H174.49V31.1482H174.41Z" fill="white"/>
<path d="M199.433 30.6661C202.391 30.6661 204.87 31.6341 206.948 33.6506C208.947 35.6671 209.986 38.1675 209.986 41.0713C209.986 43.975 208.947 46.4755 206.948 48.492C204.95 50.5085 202.471 51.5571 199.593 51.5571C196.635 51.5571 194.237 50.5085 192.158 48.492C190.16 46.4755 189.121 44.0557 189.121 41.1519C189.121 39.2161 189.6 37.4416 190.48 35.8284C191.359 34.2152 192.638 32.9246 194.237 31.9567C195.916 31.1501 197.595 30.6661 199.433 30.6661ZM199.513 32.602C198.074 32.602 196.715 33.0053 195.356 33.7312C194.077 34.4572 193.038 35.5057 192.318 36.7963C191.599 38.0869 191.199 39.5387 191.199 41.1519C191.199 43.4911 191.999 45.5076 193.598 47.1208C195.196 48.734 197.195 49.5406 199.433 49.5406C200.952 49.5406 202.391 49.1373 203.671 48.4113C204.95 47.6854 205.989 46.6368 206.708 45.3463C207.428 44.0557 207.828 42.6038 207.828 40.9906C207.828 39.3774 207.428 38.0062 206.708 36.7156C205.989 35.4251 204.95 34.3765 203.671 33.6506C202.471 33.0053 201.032 32.602 199.513 32.602Z" fill="white"/>
<path d="M232.61 34.859L231.012 36.0689C230.132 34.9396 229.173 34.0524 227.894 33.4877C226.695 32.9231 225.335 32.6005 223.976 32.6005C222.378 32.6005 220.939 33.0038 219.579 33.7297C218.22 34.4557 217.181 35.5042 216.462 36.7948C215.742 38.0854 215.342 39.5372 215.342 41.1504C215.342 43.5703 216.142 45.5868 217.821 47.2C219.5 48.8132 221.578 49.6198 224.056 49.6198C226.854 49.6198 229.093 48.4905 231.012 46.3127L232.61 47.5226C231.651 48.8132 230.372 49.7811 228.933 50.4264C227.494 51.1523 225.815 51.4749 223.976 51.4749C220.539 51.4749 217.821 50.3457 215.822 48.0066C214.143 46.0707 213.344 43.6509 213.344 40.9085C213.344 38.0047 214.383 35.5849 216.382 33.5684C218.38 31.5519 220.939 30.584 223.976 30.584C225.815 30.584 227.494 30.9873 228.933 31.7132C230.452 32.5198 231.651 33.5684 232.61 34.859Z" fill="white"/>
<path d="M235.568 51.0713L238.366 31.1482H238.686L246.68 47.4416L254.595 31.1482H254.914L257.793 51.0713H255.874L253.955 36.8751L246.92 51.0713H246.44L239.405 36.7138L237.487 51.0713H235.568Z" fill="white"/>
<path d="M270.904 30.6661C273.862 30.6661 276.34 31.6341 278.418 33.6506C280.497 35.6671 281.456 38.1675 281.456 41.0713C281.456 43.975 280.417 46.4755 278.418 48.492C276.42 50.5085 273.942 51.5571 271.064 51.5571C268.106 51.5571 265.707 50.5085 263.629 48.492C261.63 46.4755 260.591 44.0557 260.591 41.1519C260.591 39.2161 261.07 37.4416 261.95 35.8284C262.829 34.2152 264.108 32.9246 265.707 31.9567C267.306 31.1501 269.065 30.6661 270.904 30.6661ZM270.984 32.602C269.545 32.602 268.186 33.0053 266.827 33.7312C265.547 34.4572 264.508 35.5057 263.789 36.7963C263.069 38.0869 262.669 39.5387 262.669 41.1519C262.669 43.4911 263.469 45.5076 265.068 47.1208C266.667 48.734 268.665 49.5406 270.904 49.5406C272.423 49.5406 273.862 49.1373 275.141 48.4113C276.42 47.6854 277.459 46.6368 278.179 45.3463C278.898 44.0557 279.298 42.6038 279.298 40.9906C279.298 39.3774 278.898 38.0062 278.179 36.7156C277.459 35.4251 276.42 34.3765 275.141 33.6506C273.862 33.0053 272.503 32.602 270.984 32.602Z" fill="white"/>
<path d="M304 34.859L302.401 36.0689C301.522 34.9396 300.562 34.0524 299.283 33.4877C298.084 32.9231 296.725 32.6005 295.366 32.6005C293.767 32.6005 292.328 33.0038 290.969 33.7297C289.61 34.4557 288.571 35.5042 287.851 36.7948C287.132 38.0854 286.732 39.5372 286.732 41.1504C286.732 43.5703 287.531 45.5868 289.21 47.2C290.889 48.8132 292.968 49.6198 295.446 49.6198C298.244 49.6198 300.483 48.4905 302.401 46.3127L304 47.5226C303.041 48.8132 301.762 49.7811 300.323 50.4264C298.884 51.1523 297.205 51.4749 295.366 51.4749C291.928 51.4749 289.21 50.3457 287.212 48.0066C285.533 46.0707 284.733 43.6509 284.733 40.9085C284.733 38.0047 285.773 35.5849 287.771 33.5684C289.77 31.5519 292.328 30.584 295.366 30.584C297.205 30.584 298.884 30.9873 300.323 31.7132C301.842 32.5198 303.041 33.5684 304 34.859Z" fill="white"/>
<path d="M82.7939 18.2422H83.6733V21.9525H88.1502V18.2422H89.0296V27.1148H88.1502V22.8398H83.6733V27.1148H82.7939V18.2422Z" fill="white"/>
<path d="M90.3887 18.2422H91.428L93.6664 21.8719L95.9049 18.2422H96.9441L94.1461 22.8398V27.0342H93.2667V22.8398L90.3887 18.2422Z" fill="white"/>
<path d="M98.3032 27.0337V18.1611H100.142C101.421 18.1611 102.38 18.2418 103.02 18.4838C103.899 18.8064 104.539 19.2904 105.019 20.0163C105.498 20.7423 105.738 21.6295 105.738 22.6781C105.738 23.5653 105.578 24.3719 105.178 25.0172C104.779 25.6625 104.299 26.2271 103.739 26.5498C103.1 26.8724 102.3 27.0337 101.181 27.0337H98.3032ZM99.1826 26.2271H100.222C101.421 26.2271 102.3 26.1465 102.78 25.9851C103.42 25.7432 103.979 25.4205 104.299 24.8559C104.699 24.2913 104.859 23.5653 104.859 22.7587C104.859 21.8715 104.619 21.1456 104.219 20.5809C103.819 20.0163 103.26 19.5324 102.54 19.371C101.981 19.2097 101.101 19.1291 99.8222 19.1291H99.1826V26.2271Z" fill="white"/>
<path d="M107.417 18.2422H109.176C110.135 18.2422 110.775 18.2422 111.174 18.3228C111.734 18.4035 112.134 18.7261 112.454 19.1294C112.773 19.5327 112.933 20.0167 112.933 20.5813C112.933 21.0653 112.853 21.4686 112.613 21.8719C112.374 22.1945 112.054 22.5172 111.654 22.6785C111.254 22.8398 110.855 23.0011 110.535 23.0011L113.013 27.1148H111.974L109.496 23.0011H108.376V27.1148H107.497V18.2422H107.417ZM108.296 19.0488V22.0332H109.815C110.375 22.0332 110.855 21.9526 111.094 21.8719C111.414 21.7912 111.574 21.5492 111.734 21.3073C111.894 21.0653 111.974 20.8233 111.974 20.5007C111.974 20.178 111.894 19.936 111.734 19.6941C111.574 19.4521 111.334 19.2908 111.094 19.2101C110.855 19.1294 110.375 19.0488 109.815 19.0488H108.296Z" fill="white"/>
<path d="M118.929 18.0819C120.288 18.0819 121.327 18.5659 122.287 19.4531C123.166 20.3404 123.646 21.4696 123.646 22.7602C123.646 24.0508 123.166 25.0994 122.287 25.906C121.407 26.7126 120.288 27.1159 119.009 27.1159C117.73 27.1159 116.611 26.6319 115.731 25.7446C114.852 24.8574 114.372 23.8088 114.372 22.6796C114.372 21.7923 114.612 21.0663 115.012 20.3404C115.411 19.6145 115.971 19.0498 116.69 18.6465C117.41 18.2432 118.129 18.0819 118.929 18.0819ZM119.009 18.9692C118.369 18.9692 117.73 19.1305 117.17 19.4531C116.611 19.7758 116.131 20.2597 115.811 20.8244C115.491 21.389 115.331 22.0343 115.331 22.7602C115.331 23.8088 115.651 24.6961 116.371 25.3413C117.09 25.9866 117.97 26.3093 119.009 26.3093C119.648 26.3093 120.288 26.1479 120.928 25.8253C121.487 25.5027 121.967 25.0187 122.287 24.4541C122.606 23.8895 122.766 23.3248 122.766 22.7602C122.766 22.0343 122.606 21.389 122.287 20.8244C121.967 20.2597 121.487 19.7758 120.928 19.4531C120.288 19.1305 119.648 18.9692 119.009 18.9692Z" fill="white"/>
<path d="M133.558 19.9358L132.838 20.4198C132.439 19.9358 132.039 19.5325 131.479 19.2906C130.92 19.0486 130.36 18.8873 129.721 18.8873C129.001 18.8873 128.361 19.0486 127.802 19.3712C127.242 19.6939 126.763 20.1778 126.443 20.7424C126.123 21.3071 125.963 21.9523 125.963 22.6783C125.963 23.7269 126.363 24.6141 127.082 25.2594C127.802 25.9047 128.761 26.2273 129.88 26.2273C131.08 26.2273 132.119 25.7434 132.998 24.7754L133.718 25.3401C133.318 25.9047 132.758 26.308 132.119 26.6306C131.479 26.9533 130.76 27.1146 129.96 27.1146C128.441 27.1146 127.242 26.6306 126.363 25.582C125.643 24.6948 125.244 23.7269 125.244 22.5976C125.244 21.3071 125.723 20.1778 126.603 19.2906C127.482 18.4033 128.601 18 129.96 18C130.76 18 131.559 18.1613 132.199 18.484C132.599 18.8873 133.078 19.2906 133.558 19.9358Z" fill="white"/>
<path d="M139.474 18.0819C140.833 18.0819 141.872 18.5659 142.832 19.4531C143.711 20.3404 144.191 21.4696 144.191 22.7602C144.191 24.0508 143.711 25.0994 142.832 25.906C141.952 26.7126 140.833 27.1159 139.554 27.1159C138.275 27.1159 137.155 26.6319 136.276 25.7446C135.397 24.8574 134.917 23.8088 134.917 22.6796C134.917 21.7923 135.157 21.0663 135.557 20.3404C135.956 19.6145 136.516 19.0498 137.235 18.6465C137.875 18.2432 138.674 18.0819 139.474 18.0819ZM139.474 18.9692C138.834 18.9692 138.195 19.1305 137.635 19.4531C137.076 19.7758 136.596 20.2597 136.276 20.8244C135.956 21.389 135.796 22.0343 135.796 22.7602C135.796 23.8088 136.116 24.6961 136.836 25.3413C137.555 25.9866 138.435 26.3093 139.474 26.3093C140.113 26.3093 140.753 26.1479 141.393 25.8253C141.952 25.5027 142.432 25.0187 142.752 24.4541C143.071 23.8895 143.231 23.3248 143.231 22.7602C143.231 22.0343 143.071 21.389 142.752 20.8244C142.432 20.2597 141.952 19.7758 141.393 19.4531C140.753 19.1305 140.193 18.9692 139.474 18.9692Z" fill="white"/>
<path d="M145.151 25.2594L145.87 24.7754C146.43 25.7434 146.99 26.2273 147.709 26.2273C148.029 26.2273 148.269 26.1467 148.509 25.9853C148.748 25.824 148.988 25.6627 149.068 25.4207C149.228 25.1787 149.308 24.9368 149.308 24.6948C149.308 24.3721 149.228 24.1302 148.988 23.8075C148.748 23.4042 148.189 23.0009 147.469 22.5976C146.75 22.033 146.27 21.6297 146.11 21.3877C145.79 20.9844 145.631 20.5005 145.631 20.0165C145.631 19.6132 145.71 19.2906 145.87 18.9679C146.03 18.6453 146.27 18.4033 146.67 18.242C146.99 18.0807 147.389 18 147.789 18C148.189 18 148.589 18.0807 148.908 18.3226C149.228 18.5646 149.628 18.8873 150.028 19.4519L149.308 20.0165C148.988 19.6132 148.668 19.2906 148.509 19.1292C148.269 18.9679 148.029 18.8873 147.709 18.8873C147.389 18.8873 147.07 18.9679 146.83 19.2099C146.59 19.4519 146.51 19.6939 146.51 20.0165C146.51 20.1778 146.51 20.4198 146.59 20.5811C146.67 20.7424 146.83 20.9844 146.99 21.1457C147.07 21.2264 147.469 21.549 148.109 22.033C148.828 22.5976 149.388 23.0816 149.628 23.4042C149.948 23.8075 150.028 24.2108 150.028 24.6141C150.028 25.2594 149.788 25.824 149.308 26.308C148.828 26.7919 148.269 27.0339 147.549 27.0339C146.99 27.0339 146.51 26.8726 146.11 26.6306C145.87 26.3886 145.471 25.9853 145.151 25.2594Z" fill="white"/>
<path d="M151.546 27.0337L152.825 18.1611H152.985L156.583 25.4205L160.1 18.1611H160.26L161.539 27.0337H160.66L159.781 20.7423L156.663 27.0337H156.423L153.305 20.6616L152.426 27.0337H151.546Z" fill="white"/>
<path d="M167.296 18.0819C168.655 18.0819 169.694 18.5659 170.653 19.4531C171.533 20.3404 172.012 21.4696 172.012 22.7602C172.012 24.0508 171.533 25.0994 170.653 25.906C169.774 26.7126 168.655 27.1159 167.376 27.1159C166.096 27.1159 164.977 26.6319 164.098 25.7446C163.218 24.8574 162.739 23.8088 162.739 22.6796C162.739 21.7923 162.979 21.0663 163.378 20.3404C163.778 19.6145 164.338 19.0498 165.057 18.6465C165.777 18.2432 166.496 18.0819 167.296 18.0819ZM167.376 18.9692C166.736 18.9692 166.096 19.1305 165.537 19.4531C164.977 19.7758 164.498 20.2597 164.178 20.8244C163.858 21.389 163.698 22.0343 163.698 22.7602C163.698 23.8088 164.018 24.6961 164.737 25.3413C165.457 25.9866 166.336 26.3093 167.376 26.3093C168.015 26.3093 168.655 26.1479 169.294 25.8253C169.854 25.5027 170.334 25.0187 170.653 24.4541C170.973 23.8895 171.133 23.3248 171.133 22.7602C171.133 22.0343 170.973 21.389 170.653 20.8244C170.334 20.2597 169.854 19.7758 169.294 19.4531C168.655 19.1305 168.015 18.9692 167.376 18.9692Z" fill="white"/>
<path d="M172.972 25.2594L173.691 24.7754C174.251 25.7434 174.81 26.2273 175.53 26.2273C175.85 26.2273 176.09 26.1467 176.329 25.9853C176.569 25.824 176.809 25.6627 176.889 25.4207C177.049 25.1787 177.129 24.9368 177.129 24.6948C177.129 24.3721 177.049 24.1302 176.809 23.8075C176.569 23.4042 176.01 23.0009 175.29 22.5976C174.571 22.033 174.091 21.6297 173.931 21.3877C173.611 20.9844 173.451 20.5005 173.451 20.0165C173.451 19.6132 173.531 19.2906 173.691 18.9679C173.851 18.6453 174.091 18.4033 174.491 18.242C174.81 18.0807 175.21 18 175.61 18C176.01 18 176.409 18.0807 176.729 18.3226C177.049 18.5646 177.449 18.8873 177.848 19.4519L177.129 20.0165C176.809 19.6132 176.489 19.2906 176.329 19.1292C176.09 18.9679 175.85 18.8873 175.53 18.8873C175.21 18.8873 174.89 18.9679 174.651 19.2099C174.411 19.4519 174.331 19.6939 174.331 20.0165C174.331 20.1778 174.331 20.4198 174.411 20.5811C174.491 20.7424 174.651 20.9844 174.81 21.1457C174.89 21.2264 175.29 21.549 175.93 22.033C176.649 22.5976 177.209 23.0816 177.449 23.4042C177.768 23.8075 177.848 24.2108 177.848 24.6141C177.848 25.2594 177.608 25.824 177.129 26.308C176.649 26.7919 176.09 27.0339 175.37 27.0339C174.81 27.0339 174.331 26.8726 173.931 26.6306C173.771 26.3886 173.371 25.9853 172.972 25.2594Z" fill="white"/>
</svg>
