<?xml version="1.0" standalone="no"?>
<!DOCTYPE svg PUBLIC "-//W3C//DTD SVG 20010904//EN"
 "http://www.w3.org/TR/2001/REC-SVG-20010904/DTD/svg10.dtd">
<svg version="1.0" xmlns="http://www.w3.org/2000/svg"
 width="700.000000pt" height="700.000000pt" viewBox="0 0 700.000000 700.000000"
 preserveAspectRatio="xMidYMid meet">
<metadata>
Created by potrace 1.14, written by Peter Selinger 2001-2017
</metadata>
<g transform="translate(0.000000,700.000000) scale(0.100000,-0.100000)"
fill="#000000" stroke="none">
<path d="M1419 6996 c-2 -2 -32 -7 -67 -10 -53 -5 -96 -13 -172 -31 -124 -30
-273 -90 -389 -157 -200 -114 -339 -238 -499 -443 -18 -23 -82 -126 -82 -132
0 -3 -6 -14 -13 -22 -38 -45 -122 -262 -153 -391 -21 -88 -22 -94 -31 -159
-10 -70 -11 -4216 -1 -4291 46 -351 201 -663 455 -913 190 -189 443 -332 698
-396 101 -25 119 -29 186 -38 30 -4 1001 -8 2159 -8 1726 0 2118 2 2175 13 39
8 83 16 99 19 38 6 200 57 251 78 89 37 254 128 320 177 200 146 369 346 479
567 41 82 109 263 122 325 41 201 39 74 39 2321 l0 2120 -23 112 c-113 557
-490 992 -1021 1177 -57 20 -112 38 -124 40 -12 3 -48 10 -79 16 -31 6 -72 14
-90 18 -35 7 -4231 15 -4239 8z"/>
</g>
</svg>
